<?xml version="1.0" encoding="UTF-8" standalone="no"?>
<!-- Created with Inkscape (http://www.inkscape.org/) -->

<svg
   xmlns:dc="http://purl.org/dc/elements/1.1/"
   xmlns:cc="http://creativecommons.org/ns#"
   xmlns:rdf="http://www.w3.org/1999/02/22-rdf-syntax-ns#"
   xmlns:svg="http://www.w3.org/2000/svg"
   xmlns="http://www.w3.org/2000/svg"
   xmlns:sodipodi="http://sodipodi.sourceforge.net/DTD/sodipodi-0.dtd"
   xmlns:inkscape="http://www.inkscape.org/namespaces/inkscape"
   width="45"
   height="45"
   viewBox="0 0 44.999999 45.000001"
   id="svg2"
   version="1.1"
   inkscape:version="0.91 r13725"
   sodipodi:docname="fxIcons.svg">
  <defs
     id="defs4" />
  <sodipodi:namedview
     id="base"
     pagecolor="#ffffff"
     bordercolor="#666666"
     borderopacity="1.0"
     inkscape:pageopacity="0.0"
     inkscape:pageshadow="2"
     inkscape:zoom="2.5222222"
     inkscape:cx="-100.0675"
     inkscape:cy="8.157677"
     inkscape:document-units="px"
     inkscape:current-layer="layer1"
     showgrid="false"
     units="px"
     inkscape:object-nodes="true"
     inkscape:snap-page="true"
     inkscape:snap-bbox="true"
     inkscape:bbox-nodes="true"
     inkscape:snap-bbox-midpoints="true"
     inkscape:window-width="1697"
     inkscape:window-height="1191"
     inkscape:window-x="750"
     inkscape:window-y="175"
     inkscape:window-maximized="0" />
  <metadata
     id="metadata7">
    <rdf:RDF>
      <cc:Work
         rdf:about="">
        <dc:format>image/svg+xml</dc:format>
        <dc:type
           rdf:resource="http://purl.org/dc/dcmitype/StillImage" />
        <dc:title></dc:title>
      </cc:Work>
    </rdf:RDF>
  </metadata>
  <g
     inkscape:label="Livello 1"
     inkscape:groupmode="layer"
     id="layer1"
     transform="translate(0,-1007.3622)">
    <g
       id="g4168"
       transform="translate(-109.40501,-22.780329)">
      <path
         inkscape:connector-curvature="0"
         id="path4141"
         d="m 24.950155,1014.7048 c -5.120665,-0.1412 -11.366917,2.7208 -17.8854695,12.7599 -1.3605238,2.7663 -3.4583292,4.0769 -6.0287906,4.3187 a 21.477192,21.477192 0 0 0 21.3625761,19.4532 21.477192,21.477192 0 0 0 18.66695,-10.8869 c -16.46166,-15.7803 -3.553048,-18.8173 -3.553048,-18.8173 0,0 -5.078179,-6.6214 -12.562218,-6.8276 z"
         style="fill:none;fill-opacity:1;fill-rule:evenodd;stroke:#000000;stroke-width:1.5;stroke-linecap:butt;stroke-linejoin:miter;stroke-miterlimit:4;stroke-dasharray:none;stroke-opacity:1" />
      <path
         inkscape:connector-curvature="0"
         id="path4136"
         d="M 22.499999,1007.3622 A 22.499916,22.499916 0 0 0 -3.3538264e-7,1029.8622 22.499916,22.499916 0 0 0 22.499999,1052.3622 a 22.499916,22.499916 0 0 0 22.5,-22.5 22.499916,22.499916 0 0 0 -22.5,-22.5 z m 0,1.3289 a 21.170375,21.170375 0 0 1 21.171163,21.1711 21.170375,21.170375 0 0 1 -21.171163,21.1696 21.170375,21.170375 0 0 1 -21.1695832,-21.1696 21.170375,21.170375 0 0 1 21.1695832,-21.1711 z"
         style="opacity:1;fill:#000000;fill-opacity:1;stroke:none;stroke-width:3;stroke-linecap:round;stroke-linejoin:round;stroke-miterlimit:4;stroke-dasharray:none;stroke-opacity:1" />
      <path
         style="opacity:1;fill:#000000;fill-opacity:1;stroke:none;stroke-width:3;stroke-linecap:round;stroke-linejoin:round;stroke-miterlimit:4;stroke-dasharray:none;stroke-opacity:1"
         d="M 22.499999,1007.3622 A 22.499916,22.499916 0 0 0 -3.3538264e-7,1029.8622 22.499916,22.499916 0 0 0 22.499999,1052.3622 a 22.499916,22.499916 0 0 0 22.5,-22.5 22.499916,22.499916 0 0 0 -22.5,-22.5 z m 0,1.3289 a 21.170375,21.170375 0 0 1 21.171163,21.1711 21.170375,21.170375 0 0 1 -21.171163,21.1696 21.170375,21.170375 0 0 1 -21.1695832,-21.1696 21.170375,21.170375 0 0 1 21.1695832,-21.1711 z"
         id="path4143"
         inkscape:connector-curvature="0" />
      <path
         sodipodi:nodetypes="csc"
         inkscape:connector-curvature="0"
         id="path4153"
         d="m 37.403903,1021.4963 c 0,0 -13.891071,-5.0221 -17.961405,3.8794 -5.300106,11.5908 5.752442,25.9611 5.752442,25.9611"
         style="fill:none;fill-rule:evenodd;stroke:#000000;stroke-width:0.80000001;stroke-linecap:round;stroke-linejoin:miter;stroke-miterlimit:4;stroke-dasharray:none;stroke-opacity:1" />
    </g>
    <g
       id="g4299"
       transform="translate(109.04187,33.7897)">
      <path
         style="opacity:1;fill:#000000;fill-opacity:1;stroke:none;stroke-width:3;stroke-linecap:round;stroke-linejoin:round;stroke-miterlimit:4;stroke-dasharray:none;stroke-opacity:1"
         d="m -99.602191,990.18961 a 22.499916,22.499916 0 0 0 -22.499999,22.49999 22.499916,22.499916 0 0 0 22.499999,22.5 22.499916,22.499916 0 0 0 22.5,-22.5 22.499916,22.499916 0 0 0 -22.5,-22.49999 z m 0,1.3289 a 21.170375,21.170375 0 0 1 21.171163,21.17109 21.170375,21.170375 0 0 1 -21.171163,21.1696 21.170375,21.170375 0 0 1 -21.169579,-21.1696 21.170375,21.170375 0 0 1 21.169579,-21.17109 z"
         id="path4178"
         inkscape:connector-curvature="0" />
      <path
         inkscape:connector-curvature="0"
         id="path4180"
         d="m -99.602191,990.18961 a 22.499916,22.499916 0 0 0 -22.499999,22.49999 22.499916,22.499916 0 0 0 22.499999,22.5 22.499916,22.499916 0 0 0 22.5,-22.5 22.499916,22.499916 0 0 0 -22.5,-22.49999 z m 0,1.3289 a 21.170375,21.170375 0 0 1 21.171163,21.17109 21.170375,21.170375 0 0 1 -21.171163,21.1696 21.170375,21.170375 0 0 1 -21.169579,-21.1696 21.170375,21.170375 0 0 1 21.169579,-21.17109 z"
         style="opacity:1;fill:#000000;fill-opacity:1;stroke:none;stroke-width:3;stroke-linecap:round;stroke-linejoin:round;stroke-miterlimit:4;stroke-dasharray:none;stroke-opacity:1" />
      <rect
         transform="matrix(0.70710678,0.70710678,-0.70710678,0.70710678,0,0)"
         y="775.83917"
         x="634.98041"
         height="21.339705"
         width="21.339705"
         id="rect4192"
         style="opacity:1;fill:none;fill-opacity:1;stroke:#000000;stroke-width:1.5;stroke-linecap:square;stroke-linejoin:miter;stroke-miterlimit:4;stroke-dasharray:none;stroke-opacity:1" />
      <path
         sodipodi:nodetypes="cc"
         inkscape:connector-curvature="0"
         id="path4194"
         d="m -114.69165,1012.6896 29.927443,0"
         style="fill:none;fill-rule:evenodd;stroke:#000000;stroke-width:0.80000001;stroke-linecap:butt;stroke-linejoin:miter;stroke-miterlimit:4;stroke-dasharray:none;stroke-opacity:1" />
      <path
         style="fill:none;fill-rule:evenodd;stroke:#000000;stroke-width:0.80000001;stroke-linecap:butt;stroke-linejoin:miter;stroke-miterlimit:4;stroke-dasharray:none;stroke-opacity:1"
         d="m -111.91632,1015.6806 24.376783,0"
         id="path4196"
         inkscape:connector-curvature="0"
         sodipodi:nodetypes="cc" />
      <path
         sodipodi:nodetypes="cc"
         inkscape:connector-curvature="0"
         id="path4198"
         d="m -109.04187,1018.5725 18.826122,0"
         style="fill:none;fill-rule:evenodd;stroke:#000000;stroke-width:0.80000001;stroke-linecap:butt;stroke-linejoin:miter;stroke-miterlimit:4;stroke-dasharray:none;stroke-opacity:1" />
    </g>
    <g
       id="g4241"
       transform="translate(22.496288,-53.68091)">
      <path
         inkscape:connector-curvature="0"
         id="path4136-7"
         d="m -44.996288,1038.2727 a 22.499916,22.499916 0 0 0 -22.499999,22.5 22.499916,22.499916 0 0 0 22.499999,22.5 22.499916,22.499916 0 0 0 22.5,-22.5 22.499916,22.499916 0 0 0 -22.5,-22.5 z m 0,1.3289 a 21.170375,21.170375 0 0 1 21.171163,21.1711 21.170375,21.170375 0 0 1 -21.171163,21.1696 21.170375,21.170375 0 0 1 -21.169583,-21.1696 21.170375,21.170375 0 0 1 21.169583,-21.1711 z"
         style="opacity:1;fill:#000000;fill-opacity:1;stroke:none;stroke-width:3;stroke-linecap:round;stroke-linejoin:round;stroke-miterlimit:4;stroke-dasharray:none;stroke-opacity:1" />
      <path
         style="opacity:1;fill:#000000;fill-opacity:1;stroke:none;stroke-width:3;stroke-linecap:round;stroke-linejoin:round;stroke-miterlimit:4;stroke-dasharray:none;stroke-opacity:1"
         d="m -44.996288,1038.2727 a 22.499916,22.499916 0 0 0 -22.499999,22.5 22.499916,22.499916 0 0 0 22.499999,22.5 22.499916,22.499916 0 0 0 22.5,-22.5 22.499916,22.499916 0 0 0 -22.5,-22.5 z m 0,1.3289 a 21.170375,21.170375 0 0 1 21.171163,21.1711 21.170375,21.170375 0 0 1 -21.171163,21.1696 21.170375,21.170375 0 0 1 -21.169583,-21.1696 21.170375,21.170375 0 0 1 21.169583,-21.1711 z"
         id="path4143-5"
         inkscape:connector-curvature="0" />
      <path
         id="path4231"
         transform="translate(0,1007.3622)"
         d="m -41.087891,39.539062 c -3.320686,-0.03068 -6.707881,3.625482 -9.148437,10.5625 -2.86715,8.149707 -8.857796,13.496727 -12.25586,16.027344 a 21.657093,21.657093 0 0 0 17.496094,8.939453 21.657093,21.657093 0 0 0 19.132813,-11.537109 c -6.649498,-4.540846 -5.275411,-11.835856 -8.828125,-18.623047 -1.885213,-3.601691 -4.124436,-5.348145 -6.396485,-5.369141 z"
         style="fill:none;fill-rule:evenodd;stroke:#000000;stroke-width:1.5;stroke-linecap:butt;stroke-linejoin:miter;stroke-miterlimit:4;stroke-dasharray:none;stroke-opacity:1"
         inkscape:connector-curvature="0" />
      <path
         id="path4233"
         transform="translate(0,1007.3622)"
         d="m -52.414062,43.417969 c -3.163803,0.161357 -6.522446,3.606256 -9.197266,10.039062 -1.059296,2.547592 -2.435339,4.781904 -3.921875,6.742188 a 21.657093,21.657093 0 0 0 20.537109,14.86914 21.657093,21.657093 0 0 0 12.466797,-3.980468 c -12.902565,-4.599932 -9.40986,-13.449821 -13.271484,-21.949219 -1.810878,-3.985844 -4.152547,-5.846204 -6.613281,-5.720703 z"
         style="fill:none;fill-rule:evenodd;stroke:#000000;stroke-width:0.80000001;stroke-linecap:butt;stroke-linejoin:miter;stroke-miterlimit:4;stroke-dasharray:none;stroke-opacity:1"
         inkscape:connector-curvature="0" />
    </g>
    <g
       id="g4267"
       transform="translate(-7.7941748,-101.13846)">
      <path
         style="opacity:1;fill:#000000;fill-opacity:1;stroke:none;stroke-width:3;stroke-linecap:round;stroke-linejoin:round;stroke-miterlimit:4;stroke-dasharray:none;stroke-opacity:1"
         d="m -115.78484,1051.0287 a 22.499916,22.499916 0 0 0 -22.5,22.5 22.499916,22.499916 0 0 0 22.5,22.5 22.499916,22.499916 0 0 0 22.499999,-22.5 22.499916,22.499916 0 0 0 -22.499999,-22.5 z m 0,1.3289 a 21.170375,21.170375 0 0 1 21.171162,21.1711 21.170375,21.170375 0 0 1 -21.171162,21.1696 21.170375,21.170375 0 0 1 -21.16958,-21.1696 21.170375,21.170375 0 0 1 21.16958,-21.1711 z"
         id="path4249"
         inkscape:connector-curvature="0" />
      <path
         inkscape:connector-curvature="0"
         id="path4251"
         d="m -115.78484,1051.0287 a 22.499916,22.499916 0 0 0 -22.5,22.5 22.499916,22.499916 0 0 0 22.5,22.5 22.499916,22.499916 0 0 0 22.499999,-22.5 22.499916,22.499916 0 0 0 -22.499999,-22.5 z m 0,1.3289 a 21.170375,21.170375 0 0 1 21.171162,21.1711 21.170375,21.170375 0 0 1 -21.171162,21.1696 21.170375,21.170375 0 0 1 -21.16958,-21.1696 21.170375,21.170375 0 0 1 21.16958,-21.1711 z"
         style="opacity:1;fill:#000000;fill-opacity:1;stroke:none;stroke-width:3;stroke-linecap:round;stroke-linejoin:round;stroke-miterlimit:4;stroke-dasharray:none;stroke-opacity:1" />
      <circle
         r="5.9745193"
         cy="1073.5287"
         cx="-115.78484"
         id="path4261"
         style="opacity:1;fill:none;fill-opacity:1;stroke:#000000;stroke-width:1.5;stroke-linecap:square;stroke-linejoin:miter;stroke-miterlimit:4;stroke-dasharray:none;stroke-opacity:1" />
      <circle
         style="opacity:1;fill:none;fill-opacity:1;stroke:#000000;stroke-width:0.80000001;stroke-linecap:square;stroke-linejoin:miter;stroke-miterlimit:4;stroke-dasharray:none;stroke-opacity:1"
         id="circle4263"
         cx="-115.78484"
         cy="1073.5287"
         r="11.65644" />
      <circle
         r="14.838334"
         cy="1073.5287"
         cx="-115.78484"
         id="circle4265"
         style="opacity:1;fill:none;fill-opacity:1;stroke:#000000;stroke-width:0.80000001;stroke-linecap:square;stroke-linejoin:miter;stroke-miterlimit:4;stroke-dasharray:none;stroke-opacity:1" />
    </g>
    <text
       xml:space="preserve"
       style="font-style:normal;font-variant:normal;font-weight:normal;font-stretch:normal;font-size:180px;line-height:125%;font-family:Airstream;-inkscape-font-specification:Airstream;letter-spacing:0px;word-spacing:0px;fill:#000000;fill-opacity:1;stroke:none;stroke-width:1px;stroke-linecap:butt;stroke-linejoin:miter;stroke-opacity:1"
       x="-79.294342"
       y="932.612"
       id="text4291"
       sodipodi:linespacing="125%"><tspan
         sodipodi:role="line"
         id="tspan4293"
         x="-79.294342"
         y="932.612"
         style="font-style:normal;font-variant:normal;font-weight:normal;font-stretch:normal;font-size:12.5px;font-family:Roboto;-inkscape-font-specification:Roboto">border: fixed</tspan><tspan
         sodipodi:role="line"
         x="-79.294342"
         y="948.237"
         style="font-style:normal;font-variant:normal;font-weight:normal;font-stretch:normal;font-size:12.5px;font-family:Roboto;-inkscape-font-specification:Roboto"
         id="tspan4295">big stroke: 1.5px</tspan><tspan
         sodipodi:role="line"
         x="-79.294342"
         y="963.862"
         style="font-style:normal;font-variant:normal;font-weight:normal;font-stretch:normal;font-size:12.5px;font-family:Roboto;-inkscape-font-specification:Roboto"
         id="tspan4297">small stroke: 0.8px</tspan></text>
    <g
       id="g5177"
       transform="translate(43.868783,-44.197505)">
      <path
         sodipodi:nodetypes="cccccc"
         inkscape:connector-curvature="0"
         id="circle4351"
         transform="translate(0,1007.3622)"
         d="m -79.234375,93.861328 c 0.719404,-1.759312 1.103874,-3.646064 1.107422,-5.564453 8.34e-4,-8.1954 -6.642489,-14.839644 -14.837891,-14.839844 -8.195396,2e-4 -14.838716,6.644444 -14.837886,14.839844 2.4e-4,8.1947 6.64325,14.837695 14.837886,14.837895 3.04413,0 5.974877,-0.96183 8.4375,-2.67969"
         style="opacity:1;fill:none;fill-opacity:1;stroke:#000000;stroke-width:0.80000001;stroke-linecap:round;stroke-linejoin:miter;stroke-miterlimit:4;stroke-dasharray:none;stroke-opacity:1" />
      <path
         inkscape:connector-curvature="0"
         id="path4309"
         d="m -92.964535,1073.1585 a 22.499916,22.499916 0 0 0 -22.499995,22.5 22.499916,22.499916 0 0 0 22.499995,22.5 22.499916,22.499916 0 0 0 22.499999,-22.5 22.499916,22.499916 0 0 0 -22.499999,-22.5 z m 0,1.3289 a 21.170375,21.170375 0 0 1 21.171162,21.1711 21.170375,21.170375 0 0 1 -21.171162,21.1696 21.170375,21.170375 0 0 1 -21.169575,-21.1696 21.170375,21.170375 0 0 1 21.169575,-21.1711 z"
         style="opacity:1;fill:#000000;fill-opacity:1;stroke:none;stroke-width:3;stroke-linecap:round;stroke-linejoin:round;stroke-miterlimit:4;stroke-dasharray:none;stroke-opacity:1" />
      <path
         style="opacity:1;fill:#000000;fill-opacity:1;stroke:none;stroke-width:3;stroke-linecap:round;stroke-linejoin:round;stroke-miterlimit:4;stroke-dasharray:none;stroke-opacity:1"
         d="m -92.964535,1073.1585 a 22.499916,22.499916 0 0 0 -22.499995,22.5 22.499916,22.499916 0 0 0 22.499995,22.5 22.499916,22.499916 0 0 0 22.499999,-22.5 22.499916,22.499916 0 0 0 -22.499999,-22.5 z m 0,1.3289 a 21.170375,21.170375 0 0 1 21.171162,21.1711 21.170375,21.170375 0 0 1 -21.171162,21.1696 21.170375,21.170375 0 0 1 -21.169575,-21.1696 21.170375,21.170375 0 0 1 21.169575,-21.1711 z"
         id="path4311"
         inkscape:connector-curvature="0" />
      <path
         inkscape:connector-curvature="0"
         id="path4334"
         d="m -92.964539,1078.7492 c 0,9.1886 -6.054009,16.9092 -16.909231,16.9092 10.855222,0 16.909231,7.7207 16.909231,16.9093 0,-9.1886 6.054008,-16.9093 16.909235,-16.9093 -10.855227,0 -16.909235,-7.7206 -16.909235,-16.9092 z"
         style="opacity:1;fill:none;fill-opacity:1;stroke:#000000;stroke-width:1.5;stroke-linecap:round;stroke-linejoin:round;stroke-miterlimit:4;stroke-dasharray:none;stroke-opacity:1" />
      <path
         inkscape:connector-curvature="0"
         id="path4355"
         d="m -81.400071,1099.4685 c 0,3.0332 -1.998429,5.5816 -5.581735,5.5816 3.583306,0 5.581735,2.5485 5.581735,5.5817 0,-3.0332 1.998426,-5.5817 5.581735,-5.5817 -3.583309,0 -5.581735,-2.5484 -5.581735,-5.5816 z"
         style="opacity:1;fill:#000000;fill-opacity:1;stroke:none;stroke-width:1;stroke-linecap:round;stroke-linejoin:round;stroke-miterlimit:4;stroke-dasharray:none;stroke-opacity:1" />
    </g>
    <g
       id="g5233"
       transform="translate(52.731277,-41.629956)">
      <path
         inkscape:connector-curvature="0"
         id="path4368"
         d="m -150.93584,1096.5863 a 22.499916,22.499916 0 0 0 -22.5,22.5 22.499916,22.499916 0 0 0 22.5,22.5 22.499916,22.499916 0 0 0 22.5,-22.5 22.499916,22.499916 0 0 0 -22.5,-22.5 z m 0,1.3289 a 21.170375,21.170375 0 0 1 21.17116,21.1711 21.170375,21.170375 0 0 1 -21.17116,21.1696 21.170375,21.170375 0 0 1 -21.16958,-21.1696 21.170375,21.170375 0 0 1 21.16958,-21.1711 z"
         style="opacity:1;fill:#000000;fill-opacity:1;stroke:none;stroke-width:3;stroke-linecap:round;stroke-linejoin:round;stroke-miterlimit:4;stroke-dasharray:none;stroke-opacity:1" />
      <path
         style="opacity:1;fill:#000000;fill-opacity:1;stroke:none;stroke-width:3;stroke-linecap:round;stroke-linejoin:round;stroke-miterlimit:4;stroke-dasharray:none;stroke-opacity:1"
         d="m -150.93584,1096.5863 a 22.499916,22.499916 0 0 0 -22.5,22.5 22.499916,22.499916 0 0 0 22.5,22.5 22.499916,22.499916 0 0 0 22.5,-22.5 22.499916,22.499916 0 0 0 -22.5,-22.5 z m 0,1.3289 a 21.170375,21.170375 0 0 1 21.17116,21.1711 21.170375,21.170375 0 0 1 -21.17116,21.1696 21.170375,21.170375 0 0 1 -21.16958,-21.1696 21.170375,21.170375 0 0 1 21.16958,-21.1711 z"
         id="path4370"
         inkscape:connector-curvature="0" />
      <path
         id="path4385"
         transform="translate(0,1007.3622)"
         d="m -152.70703,112.43555 -8.26758,8.26757 1.06055,1.06055 8.26758,-8.26758 -1.06055,-1.06054 z"
         style="color:#000000;font-style:normal;font-variant:normal;font-weight:normal;font-stretch:normal;font-size:medium;line-height:normal;font-family:sans-serif;text-indent:0;text-align:start;text-decoration:none;text-decoration-line:none;text-decoration-style:solid;text-decoration-color:#000000;letter-spacing:normal;word-spacing:normal;text-transform:none;direction:ltr;block-progression:tb;writing-mode:lr-tb;baseline-shift:baseline;text-anchor:start;white-space:normal;clip-rule:nonzero;display:inline;overflow:visible;visibility:visible;opacity:1;isolation:auto;mix-blend-mode:normal;color-interpolation:sRGB;color-interpolation-filters:linearRGB;solid-color:#000000;solid-opacity:1;fill:#000000;fill-opacity:1;fill-rule:evenodd;stroke:none;stroke-width:1.5;stroke-linecap:butt;stroke-linejoin:miter;stroke-miterlimit:4;stroke-dasharray:none;stroke-dashoffset:0;stroke-opacity:1;color-rendering:auto;image-rendering:auto;shape-rendering:auto;text-rendering:auto;enable-background:accumulate"
         inkscape:connector-curvature="0" />
      <path
         style="fill:none;fill-rule:evenodd;stroke:#000000;stroke-width:1.5;stroke-linecap:butt;stroke-linejoin:miter;stroke-miterlimit:4;stroke-dasharray:none;stroke-opacity:1"
         d="m -141.42695,1128.5951 -19.01778,-19.0176"
         id="path4387"
         inkscape:connector-curvature="0" />
      <path
         id="path4395"
         transform="translate(0,1007.3622)"
         d="m -141.95703,101.68555 -8.26758,8.26757 1.06055,1.06055 8.26758,-8.26758 -1.06055,-1.06054 z"
         style="color:#000000;font-style:normal;font-variant:normal;font-weight:normal;font-stretch:normal;font-size:medium;line-height:normal;font-family:sans-serif;text-indent:0;text-align:start;text-decoration:none;text-decoration-line:none;text-decoration-style:solid;text-decoration-color:#000000;letter-spacing:normal;word-spacing:normal;text-transform:none;direction:ltr;block-progression:tb;writing-mode:lr-tb;baseline-shift:baseline;text-anchor:start;white-space:normal;clip-rule:nonzero;display:inline;overflow:visible;visibility:visible;opacity:1;isolation:auto;mix-blend-mode:normal;color-interpolation:sRGB;color-interpolation-filters:linearRGB;solid-color:#000000;solid-opacity:1;fill:#000000;fill-opacity:1;fill-rule:evenodd;stroke:none;stroke-width:1.5;stroke-linecap:butt;stroke-linejoin:miter;stroke-miterlimit:4;stroke-dasharray:none;stroke-dashoffset:0;stroke-opacity:1;color-rendering:auto;image-rendering:auto;shape-rendering:auto;text-rendering:auto;enable-background:accumulate"
         inkscape:connector-curvature="0" />
    </g>
  </g>
</svg>
