<?xml version="1.0" encoding="UTF-8" standalone="no"?>
<!-- Created with Inkscape (http://www.inkscape.org/) -->

<svg
   xmlns:dc="http://purl.org/dc/elements/1.1/"
   xmlns:cc="http://creativecommons.org/ns#"
   xmlns:rdf="http://www.w3.org/1999/02/22-rdf-syntax-ns#"
   xmlns:svg="http://www.w3.org/2000/svg"
   xmlns="http://www.w3.org/2000/svg"
   xmlns:sodipodi="http://sodipodi.sourceforge.net/DTD/sodipodi-0.dtd"
   xmlns:inkscape="http://www.inkscape.org/namespaces/inkscape"
   width="256"
   height="256"
   viewBox="0 0 239.99999 239.99999"
   id="svg2"
   version="1.1"
   inkscape:version="0.92.0 r"
   sodipodi:docname="icon.svg"
   inkscape:export-filename="/home/gabmus/git/razerCommander/icon.png"
   inkscape:export-xdpi="192"
   inkscape:export-ydpi="192">
  <defs
     id="defs4">
    <inkscape:path-effect
       effect="spiro"
       id="path-effect4682"
       is_visible="true" />
    <inkscape:path-effect
       effect="spiro"
       id="path-effect4679"
       is_visible="true" />
    <inkscape:path-effect
       effect="spiro"
       id="path-effect4676"
       is_visible="true" />
    <inkscape:path-effect
       effect="spiro"
       id="path-effect4654"
       is_visible="true" />
    <inkscape:path-effect
       effect="spiro"
       id="path-effect4651"
       is_visible="true" />
    <inkscape:path-effect
       effect="spiro"
       id="path-effect4648"
       is_visible="true" />
    <inkscape:perspective
       sodipodi:type="inkscape:persp3d"
       inkscape:vp_x="-191.8101 : 1767.4692 : 1"
       inkscape:vp_y="0 : 3612.3584 : 0"
       inkscape:vp_z="2956.2636 : 1767.4692 : 1"
       inkscape:persp3d-origin="1382.2269 : 1133.8843 : 1"
       id="perspective4483" />
    <inkscape:path-effect
       is_visible="true"
       id="path-effect4835"
       effect="spiro" />
    <inkscape:path-effect
       is_visible="true"
       id="path-effect4745"
       effect="spiro" />
    <marker
       inkscape:isstock="true"
       style="overflow:visible"
       id="Arrow1Lstart"
       refX="0"
       refY="0"
       orient="auto"
       inkscape:stockid="Arrow1Lstart">
      <path
         inkscape:connector-curvature="0"
         transform="matrix(0.8,0,0,0.8,10,0)"
         style="fill:#00ff00;fill-opacity:1;fill-rule:evenodd;stroke:#000000;stroke-width:1.00000003pt;stroke-opacity:1"
         d="M 0,0 5,-5 -12.5,0 5,5 Z"
         id="path4461" />
    </marker>
    <inkscape:path-effect
       is_visible="true"
       id="path-effect4224"
       effect="spiro" />
    <inkscape:path-effect
       is_visible="true"
       id="path-effect4161"
       effect="spiro" />
    <inkscape:path-effect
       is_visible="true"
       id="path-effect4161-4"
       effect="spiro" />
    <inkscape:path-effect
       is_visible="true"
       id="path-effect4161-4-5"
       effect="spiro" />
    <inkscape:path-effect
       is_visible="true"
       id="path-effect4745-0"
       effect="spiro" />
    <inkscape:path-effect
       is_visible="true"
       id="path-effect4745-00"
       effect="spiro" />
    <inkscape:path-effect
       is_visible="true"
       id="path-effect4161-4-0"
       effect="spiro" />
    <filter
       inkscape:collect="always"
       style="color-interpolation-filters:sRGB"
       id="filter4847"
       x="-0.048263859"
       width="1.0965277"
       y="-0.083609939"
       height="1.1672199">
      <feGaussianBlur
         inkscape:collect="always"
         stdDeviation="6.0894799"
         id="feGaussianBlur4849" />
    </filter>
  </defs>
  <sodipodi:namedview
     id="base"
     pagecolor="#ffffff"
     bordercolor="#666666"
     borderopacity="1.0"
     inkscape:pageopacity="0.0"
     inkscape:pageshadow="2"
     inkscape:zoom="1.4142136"
     inkscape:cx="209.96878"
     inkscape:cy="95.12156"
     inkscape:document-units="px"
     inkscape:current-layer="layer1"
     showgrid="false"
     inkscape:snap-bbox="true"
     inkscape:snap-bbox-midpoints="false"
     inkscape:snap-center="true"
     units="px"
     inkscape:snap-page="true"
     inkscape:bbox-nodes="true"
     inkscape:window-width="1920"
     inkscape:window-height="1025"
     inkscape:window-x="0"
     inkscape:window-y="27"
     inkscape:window-maximized="1"
     inkscape:bbox-paths="false"
     inkscape:snap-bbox-edge-midpoints="false"
     inkscape:measure-start="-387.857,207.857"
     inkscape:measure-end="-490.298,266.428" />
  <metadata
     id="metadata7">
    <rdf:RDF>
      <cc:Work
         rdf:about="">
        <dc:format>image/svg+xml</dc:format>
        <dc:type
           rdf:resource="http://purl.org/dc/dcmitype/StillImage" />
        <dc:title />
      </cc:Work>
    </rdf:RDF>
  </metadata>
  <g
     inkscape:label="Livello 1"
     inkscape:groupmode="layer"
     id="layer1"
     transform="translate(0,-812.36218)">
    <text
       xml:space="preserve"
       style="font-style:normal;font-weight:normal;font-size:151.28013611px;line-height:302.56027222px;font-family:sans-serif;letter-spacing:0px;word-spacing:0px;fill:#800000;fill-opacity:1;stroke:none;stroke-width:12.10241127px;stroke-linecap:butt;stroke-linejoin:miter;stroke-opacity:1"
       x="-1152.6017"
       y="1781.8446"
       id="text4742"><tspan
         sodipodi:role="line"
         id="tspan4740"
         x="-1152.6017"
         y="1972.4221"
         style="font-style:normal;font-variant:normal;font-weight:normal;font-stretch:normal;font-family:'Razer Blackwidow';-inkscape-font-specification:'Razer Blackwidow';fill:#800000;stroke-width:12.10241127px" /></text>
    <text
       xml:space="preserve"
       style="font-style:normal;font-variant:normal;font-weight:normal;font-stretch:normal;font-size:11.71874905px;line-height:1.40624988px;font-family:'Razer Blackwidow';-inkscape-font-specification:'Razer Blackwidow';letter-spacing:0px;word-spacing:0px;fill:#000000;fill-opacity:1;stroke:none;stroke-width:0.93749994px;stroke-linecap:butt;stroke-linejoin:miter;stroke-opacity:1"
       x="-847.09814"
       y="1968.4335"
       id="text4559"><tspan
         sodipodi:role="line"
         x="-847.09814"
         y="1972.5546"
         style="font-style:normal;font-variant:normal;font-weight:normal;font-stretch:normal;line-height:2.34374976px;font-family:'Razer Blackwidow';-inkscape-font-specification:'Razer Blackwidow';stroke-width:0.93749994px"
         id="tspan4565" /></text>
    <g
       id="g5363"
       transform="matrix(0.53670328,0,0,0.53670328,528.33892,-15.898252)">
      <path
         style="fill:#505050;fill-opacity:1;fill-rule:evenodd;stroke:none;stroke-width:0.93749994px;stroke-linecap:butt;stroke-linejoin:miter;stroke-opacity:1"
         d="m -966.37231,1659.5736 -18.043,75.0002 111.79415,64.5431 -1.8e-4,-85.4172 z"
         id="path4725"
         inkscape:connector-curvature="0"
         sodipodi:nodetypes="ccccc" />
      <path
         style="fill:#3c3c3c;fill-opacity:1;fill-rule:evenodd;stroke:none;stroke-width:0.93749994px;stroke-linecap:butt;stroke-linejoin:miter;stroke-opacity:1"
         d="m -872.62116,1713.6997 93.74903,-54.1261 18.04297,75.0002 -111.79182,64.5431 z"
         id="path4727"
         inkscape:connector-curvature="0"
         sodipodi:nodetypes="ccccc" />
      <path
         sodipodi:nodetypes="ccccc"
         inkscape:connector-curvature="0"
         id="path4736"
         d="m -746.12082,1662.1142 -18.043,75.0002 111.79415,64.5431 -1.8e-4,-85.4172 z"
         style="fill:#505050;fill-opacity:1;fill-rule:evenodd;stroke:none;stroke-width:0.93749994px;stroke-linecap:butt;stroke-linejoin:miter;stroke-opacity:1" />
      <path
         sodipodi:nodetypes="ccccc"
         inkscape:connector-curvature="0"
         id="path4738"
         d="m -652.36967,1716.2403 93.74903,-54.1261 18.04297,75.0002 -111.79182,64.5431 z"
         style="fill:#3c3c3c;fill-opacity:1;fill-rule:evenodd;stroke:none;stroke-width:0.93749994px;stroke-linecap:butt;stroke-linejoin:miter;stroke-opacity:1" />
      <path
         style="fill:#505050;fill-opacity:1;fill-rule:evenodd;stroke:none;stroke-width:0.93749994px;stroke-linecap:butt;stroke-linejoin:miter;stroke-opacity:1"
         d="m -854.57816,1724.1167 -18.043,75.0002 111.79415,64.5431 -1.8e-4,-85.4172 z"
         id="path4689"
         inkscape:connector-curvature="0"
         sodipodi:nodetypes="ccccc" />
      <path
         style="fill:#3c3c3c;fill-opacity:1;fill-rule:evenodd;stroke:none;stroke-width:0.93749994px;stroke-linecap:butt;stroke-linejoin:miter;stroke-opacity:1"
         d="m -760.82701,1778.2428 93.74903,-54.1261 18.04297,75.0002 -111.79182,64.5431 z"
         id="path4691"
         inkscape:connector-curvature="0"
         sodipodi:nodetypes="ccccc" />
      <g
         style="fill:#464646;fill-opacity:1"
         id="g4901">
        <path
           inkscape:connector-curvature="0"
           id="path4723"
           d="m -872.62116,1605.4456 -93.75097,54.128 93.75097,54.1261 93.74903,-54.1261 z"
           style="fill:#464646;fill-opacity:1;stroke:none;stroke-width:0.99940664" />
        <path
           style="fill:#464646;fill-opacity:1;stroke:none;stroke-width:0.99940664"
           d="m -652.36967,1607.9862 -93.75097,54.128 93.75097,54.1261 93.74903,-54.1261 z"
           id="path4730"
           inkscape:connector-curvature="0" />
        <path
           inkscape:connector-curvature="0"
           id="path4687"
           d="m -760.82701,1669.9887 -93.75097,54.128 93.75097,54.1261 93.74903,-54.1261 z"
           style="fill:#464646;fill-opacity:1;stroke:none;stroke-width:0.99940664" />
        <path
           style="fill:#464646;fill-opacity:1;stroke:none;stroke-width:0.99940664"
           d="m -649.03286,1734.5318 -93.75097,54.128 93.75097,54.1261 93.74903,-54.1261 z"
           id="path4705"
           inkscape:connector-curvature="0" />
      </g>
      <path
         sodipodi:nodetypes="ccccc"
         inkscape:connector-curvature="0"
         id="path4707"
         d="m -742.78401,1788.6598 -18.043,75.0002 111.79415,64.5431 -1.8e-4,-85.4172 z"
         style="fill:#505050;fill-opacity:1;fill-rule:evenodd;stroke:none;stroke-width:0.93749994px;stroke-linecap:butt;stroke-linejoin:miter;stroke-opacity:1" />
      <path
         sodipodi:nodetypes="ccccc"
         inkscape:connector-curvature="0"
         id="path4709"
         d="m -649.03286,1842.7859 93.74903,-54.1261 18.04297,75.0002 -111.79182,64.5431 z"
         style="fill:#3c3c3c;fill-opacity:1;fill-rule:evenodd;stroke:none;stroke-width:0.93749994px;stroke-linecap:butt;stroke-linejoin:miter;stroke-opacity:1" />
      <g
         id="g4777">
        <path
           d="m -850.11611,1661.4995 q 1.53566,-0.887 1.45649,-1.9729 -0.0796,-1.0857 -1.45644,-1.8809 l -19.1696,-11.0718 q -1.53572,-0.887 -3.44189,-0.8259 -1.90669,0.061 -3.23048,0.8259 l -1.95918,1.1316 q -1.53584,0.887 -1.5095,1.9729 0.0267,1.0856 1.45655,1.9114 l 19.1696,11.0718 q 1.53572,0.887 3.41556,0.8412 1.87989,-0.046 3.30971,-0.8718 z m 17.15762,-2e-4 -36.32725,20.9816 q -1.37669,0.7951 -3.28289,0.8256 -1.90684,0.031 -3.38959,-0.8255 l -1.8534,-1.0705 q -1.53571,-0.8869 -1.53552,-1.9575 1.2e-4,-1.0706 1.48271,-1.9269 l 10.48534,-6.056 q 1.53538,-0.8868 1.48242,-1.9879 -0.0527,-1.1011 -1.42958,-1.8964 l -19.16961,-11.0718 q -1.53572,-0.887 -3.44229,-0.8257 -1.90629,0.061 -3.28286,0.8562 l -10.48533,6.0561 q -1.53584,0.887 -3.36255,0.8716 -1.82717,-0.015 -3.36289,-0.9021 l -1.85339,-1.0705 q -1.53572,-0.887 -1.50904,-1.9423 0.0266,-1.0553 1.50916,-1.9116 l 36.32725,-20.9815 q 1.37657,-0.7951 3.28291,-0.8257 1.90623,-0.03 3.389,0.826 l 36.32694,20.9814 q 1.53569,0.8869 1.53594,1.9267 -2.7e-4,1.04 -1.53548,1.9267 z"
           style="font-style:normal;font-variant:normal;font-weight:normal;font-stretch:normal;font-size:medium;line-height:23.43749809px;font-family:'Razer Blackwidow';-inkscape-font-specification:'Razer Blackwidow';letter-spacing:0px;word-spacing:0px;fill:#1ec01e;fill-opacity:1;stroke:none;stroke-width:4.66243744px;stroke-linecap:butt;stroke-linejoin:miter;stroke-opacity:1"
           id="path4733"
           inkscape:connector-curvature="0" />
        <path
           inkscape:connector-curvature="0"
           id="path4578"
           style="font-style:normal;font-variant:normal;font-weight:normal;font-stretch:normal;font-size:medium;line-height:23.43749809px;font-family:'Razer Blackwidow';-inkscape-font-specification:'Razer Blackwidow';letter-spacing:0px;word-spacing:0px;fill:#1ec01e;fill-opacity:1;stroke:none;stroke-width:4.66243744px;stroke-linecap:butt;stroke-linejoin:miter;stroke-opacity:1"
           d="m -657.66589,1673.9802 1.95935,1.1316 q 1.53572,0.887 3.44195,0.8259 1.90663,-0.061 3.23047,-0.8259 l 27.74838,-16.0266 q 1.37657,-0.7951 3.2828,-0.8256 1.90634,-0.031 3.44207,0.8564 l 1.85338,1.0704 q 1.53572,0.887 1.5095,1.9421 -0.0266,1.0552 -1.5091,1.9114 l -36.32731,20.9817 q -1.37663,0.7951 -3.2828,0.8256 -1.90685,0.031 -3.38956,-0.8256 l -36.32697,-20.9814 q -1.53567,-0.887 -1.50905,-1.9422 0.0267,-1.0553 1.50916,-1.9116 l 36.32731,-20.9816 q 1.37657,-0.795 3.28274,-0.8256 1.9064,-0.031 3.38911,0.8258 l 1.85339,1.0705 q 1.53566,0.8869 1.53595,1.9573 -1.2e-4,1.0705 -1.4826,1.9268 l -27.74837,16.0266 q -1.53572,0.887 -1.48305,1.9577 0.0532,1.0703 1.48299,1.8961 l 1.90635,1.1011 q 1.53572,0.8869 3.46839,0.8411 1.93313,-0.046 3.25698,-0.8106 l 27.74837,-16.0266 q 1.58851,-0.9175 3.36232,-0.9021 1.77382,0.015 3.30954,0.9023 l 1.85344,1.0705 q 1.3768,0.7952 1.43004,1.8961 0.0528,1.1011 -1.42964,1.9574 l -27.74837,16.0266 q -1.53572,0.887 -1.5095,1.9424 0.0267,1.055 1.56234,1.942 z" />
        <path
           d="m -766.12306,1712.2486 q -1.53584,0.887 -1.5095,1.9729 0.0268,1.0856 1.45655,1.9114 l 27.74833,16.0267 q 1.58859,0.9175 1.562,1.9422 -0.0263,1.0244 -1.56209,1.9115 l -19.06382,11.0107 q -1.58856,0.9175 -3.38896,0.8869 -1.80082,-0.03 -3.28353,-0.8868 l -36.32699,-20.9814 q -1.58862,-0.9176 -1.58839,-1.9576 0.0527,-1.0092 1.58856,-1.8963 l 1.85361,-1.0706 q 1.53538,-0.8867 3.38894,-0.8869 1.8535,10e-5 3.33621,0.8564 l 27.74832,16.0267 q 1.53566,0.8869 3.44189,0.8258 1.90668,-0.061 3.23059,-0.8259 l 1.9064,-1.1011 q 1.53538,-0.8868 1.48248,-1.9879 -0.0528,-1.1012 -1.42964,-1.8964 l -27.74832,-16.0266 q -1.58862,-0.9175 -1.5889,-1.9573 0.0532,-1.0095 1.58907,-1.8965 l 19.1166,-11.0412 q 1.53521,-0.8867 3.36237,-0.8716 1.82677,0.015 3.30948,0.8718 l 36.32699,20.9815 q 1.53569,0.8869 1.50955,1.9419 -0.0265,1.0552 -1.50912,1.9115 l -1.85379,1.0707 q -1.53566,0.887 -3.38881,0.8868 -1.85354,10e-5 -3.33625,-0.8563 l -27.74834,-16.0266 q -1.53566,-0.887 -3.41544,-0.8412 -1.87984,0.046 -3.25687,0.8412 z"
           style="font-style:normal;font-variant:normal;font-weight:normal;font-stretch:normal;font-size:medium;line-height:23.43749809px;font-family:'Razer Blackwidow';-inkscape-font-specification:'Razer Blackwidow';letter-spacing:0px;word-spacing:0px;fill:#1ec01e;fill-opacity:1;stroke:none;stroke-width:4.66243744px;stroke-linecap:butt;stroke-linejoin:miter;stroke-opacity:1"
           id="path4699"
           inkscape:connector-curvature="0" />
        <path
           inkscape:connector-curvature="0"
           id="path4719"
           style="font-style:normal;font-variant:normal;font-weight:normal;font-stretch:normal;font-size:medium;line-height:23.43749809px;font-family:'Razer Blackwidow';-inkscape-font-specification:'Razer Blackwidow';letter-spacing:0px;word-spacing:0px;fill:#1ec01e;fill-opacity:1;stroke:none;stroke-width:4.66243744px;stroke-linecap:butt;stroke-linejoin:miter;stroke-opacity:1"
           d="m -652.36967,1801.6575 q 1.53566,0.8869 3.44195,0.8258 1.90657,-0.061 3.23047,-0.826 l 19.16938,-11.0717 q 1.53566,-0.8869 1.45655,-1.9728 -0.0796,-1.0857 -1.45644,-1.8809 l -19.16966,-11.0718 q -1.53566,-0.887 -3.44189,-0.826 -1.90668,0.061 -3.23048,0.826 l -19.16938,11.0717 q -1.53583,0.887 -1.4831,1.9576 0.0532,1.0704 1.48293,1.8962 z m -36.32731,-11.0718 q -1.53561,-0.8869 -1.50899,-1.9422 0.0266,-1.0553 1.50922,-1.9116 l 36.32725,-20.9815 q 1.37657,-0.7951 3.28286,-0.8257 1.90623,-0.031 3.38894,0.8259 l 31.08446,17.9535 q 3.65392,2.1104 3.62783,4.9699 -0.0265,2.8597 -3.62753,4.9396 l -25.84192,14.9255 q -3.65411,2.1105 -8.60507,2.0951 -4.9516,-0.015 -8.55258,-2.095 z" />
      </g>
      <g
         style="filter:url(#filter4847)"
         id="g4787">
        <path
           inkscape:connector-curvature="0"
           id="path4779"
           style="font-style:normal;font-variant:normal;font-weight:normal;font-stretch:normal;font-size:medium;line-height:23.43749809px;font-family:'Razer Blackwidow';-inkscape-font-specification:'Razer Blackwidow';letter-spacing:0px;word-spacing:0px;fill:#1ec01e;fill-opacity:1;stroke:none;stroke-width:4.66243744px;stroke-linecap:butt;stroke-linejoin:miter;stroke-opacity:1"
           d="m -850.11611,1661.4995 q 1.53566,-0.887 1.45649,-1.9729 -0.0796,-1.0857 -1.45644,-1.8809 l -19.1696,-11.0718 q -1.53572,-0.887 -3.44189,-0.8259 -1.90669,0.061 -3.23048,0.8259 l -1.95918,1.1316 q -1.53584,0.887 -1.5095,1.9729 0.0267,1.0856 1.45655,1.9114 l 19.1696,11.0718 q 1.53572,0.887 3.41556,0.8412 1.87989,-0.046 3.30971,-0.8718 z m 17.15762,-2e-4 -36.32725,20.9816 q -1.37669,0.7951 -3.28289,0.8256 -1.90684,0.031 -3.38959,-0.8255 l -1.8534,-1.0705 q -1.53571,-0.8869 -1.53552,-1.9575 1.2e-4,-1.0706 1.48271,-1.9269 l 10.48534,-6.056 q 1.53538,-0.8868 1.48242,-1.9879 -0.0527,-1.1011 -1.42958,-1.8964 l -19.16961,-11.0718 q -1.53572,-0.887 -3.44229,-0.8257 -1.90629,0.061 -3.28286,0.8562 l -10.48533,6.0561 q -1.53584,0.887 -3.36255,0.8716 -1.82717,-0.015 -3.36289,-0.9021 l -1.85339,-1.0705 q -1.53572,-0.887 -1.50904,-1.9423 0.0266,-1.0553 1.50916,-1.9116 l 36.32725,-20.9815 q 1.37657,-0.7951 3.28291,-0.8257 1.90623,-0.03 3.389,0.826 l 36.32694,20.9814 q 1.53569,0.8869 1.53594,1.9267 -2.7e-4,1.04 -1.53548,1.9267 z" />
        <path
           d="m -657.66589,1673.9802 1.95935,1.1316 q 1.53572,0.887 3.44195,0.8259 1.90663,-0.061 3.23047,-0.8259 l 27.74838,-16.0266 q 1.37657,-0.7951 3.2828,-0.8256 1.90634,-0.031 3.44207,0.8564 l 1.85338,1.0704 q 1.53572,0.887 1.5095,1.9421 -0.0266,1.0552 -1.5091,1.9114 l -36.32731,20.9817 q -1.37663,0.7951 -3.2828,0.8256 -1.90685,0.031 -3.38956,-0.8256 l -36.32697,-20.9814 q -1.53567,-0.887 -1.50905,-1.9422 0.0267,-1.0553 1.50916,-1.9116 l 36.32731,-20.9816 q 1.37657,-0.795 3.28274,-0.8256 1.9064,-0.031 3.38911,0.8258 l 1.85339,1.0705 q 1.53566,0.8869 1.53595,1.9573 -1.2e-4,1.0705 -1.4826,1.9268 l -27.74837,16.0266 q -1.53572,0.887 -1.48305,1.9577 0.0532,1.0703 1.48299,1.8961 l 1.90635,1.1011 q 1.53572,0.8869 3.46839,0.8411 1.93313,-0.046 3.25698,-0.8106 l 27.74837,-16.0266 q 1.58851,-0.9175 3.36232,-0.9021 1.77382,0.015 3.30954,0.9023 l 1.85344,1.0705 q 1.3768,0.7952 1.43004,1.8961 0.0528,1.1011 -1.42964,1.9574 l -27.74837,16.0266 q -1.53572,0.887 -1.5095,1.9424 0.0267,1.055 1.56234,1.942 z"
           style="font-style:normal;font-variant:normal;font-weight:normal;font-stretch:normal;font-size:medium;line-height:23.43749809px;font-family:'Razer Blackwidow';-inkscape-font-specification:'Razer Blackwidow';letter-spacing:0px;word-spacing:0px;fill:#1ec01e;fill-opacity:1;stroke:none;stroke-width:4.66243744px;stroke-linecap:butt;stroke-linejoin:miter;stroke-opacity:1"
           id="path4781"
           inkscape:connector-curvature="0" />
        <path
           inkscape:connector-curvature="0"
           id="path4783"
           style="font-style:normal;font-variant:normal;font-weight:normal;font-stretch:normal;font-size:medium;line-height:23.43749809px;font-family:'Razer Blackwidow';-inkscape-font-specification:'Razer Blackwidow';letter-spacing:0px;word-spacing:0px;fill:#1ec01e;fill-opacity:1;stroke:none;stroke-width:4.66243744px;stroke-linecap:butt;stroke-linejoin:miter;stroke-opacity:1"
           d="m -766.12306,1712.2486 q -1.53584,0.887 -1.5095,1.9729 0.0268,1.0856 1.45655,1.9114 l 27.74833,16.0267 q 1.58859,0.9175 1.562,1.9422 -0.0263,1.0244 -1.56209,1.9115 l -19.06382,11.0107 q -1.58856,0.9175 -3.38896,0.8869 -1.80082,-0.03 -3.28353,-0.8868 l -36.32699,-20.9814 q -1.58862,-0.9176 -1.58839,-1.9576 0.0527,-1.0092 1.58856,-1.8963 l 1.85361,-1.0706 q 1.53538,-0.8867 3.38894,-0.8869 1.8535,10e-5 3.33621,0.8564 l 27.74832,16.0267 q 1.53566,0.8869 3.44189,0.8258 1.90668,-0.061 3.23059,-0.8259 l 1.9064,-1.1011 q 1.53538,-0.8868 1.48248,-1.9879 -0.0528,-1.1012 -1.42964,-1.8964 l -27.74832,-16.0266 q -1.58862,-0.9175 -1.5889,-1.9573 0.0532,-1.0095 1.58907,-1.8965 l 19.1166,-11.0412 q 1.53521,-0.8867 3.36237,-0.8716 1.82677,0.015 3.30948,0.8718 l 36.32699,20.9815 q 1.53569,0.8869 1.50955,1.9419 -0.0265,1.0552 -1.50912,1.9115 l -1.85379,1.0707 q -1.53566,0.887 -3.38881,0.8868 -1.85354,10e-5 -3.33625,-0.8563 l -27.74834,-16.0266 q -1.53566,-0.887 -3.41544,-0.8412 -1.87984,0.046 -3.25687,0.8412 z" />
        <path
           d="m -652.36967,1801.6575 q 1.53566,0.8869 3.44195,0.8258 1.90657,-0.061 3.23047,-0.826 l 19.16938,-11.0717 q 1.53566,-0.8869 1.45655,-1.9728 -0.0796,-1.0857 -1.45644,-1.8809 l -19.16966,-11.0718 q -1.53566,-0.887 -3.44189,-0.826 -1.90668,0.061 -3.23048,0.826 l -19.16938,11.0717 q -1.53583,0.887 -1.4831,1.9576 0.0532,1.0704 1.48293,1.8962 z m -36.32731,-11.0718 q -1.53561,-0.8869 -1.50899,-1.9422 0.0266,-1.0553 1.50922,-1.9116 l 36.32725,-20.9815 q 1.37657,-0.7951 3.28286,-0.8257 1.90623,-0.031 3.38894,0.8259 l 31.08446,17.9535 q 3.65392,2.1104 3.62783,4.9699 -0.0265,2.8597 -3.62753,4.9396 l -25.84192,14.9255 q -3.65411,2.1105 -8.60507,2.0951 -4.9516,-0.015 -8.55258,-2.095 z"
           style="font-style:normal;font-variant:normal;font-weight:normal;font-stretch:normal;font-size:medium;line-height:23.43749809px;font-family:'Razer Blackwidow';-inkscape-font-specification:'Razer Blackwidow';letter-spacing:0px;word-spacing:0px;fill:#1ec01e;fill-opacity:1;stroke:none;stroke-width:4.66243744px;stroke-linecap:butt;stroke-linejoin:miter;stroke-opacity:1"
           id="path4785"
           inkscape:connector-curvature="0" />
      </g>
    </g>
  </g>
</svg>
