<?xml version="1.0" encoding="UTF-8" standalone="no"?>
<!-- Created with Inkscape (http://www.inkscape.org/) -->

<svg
   xmlns:dc="http://purl.org/dc/elements/1.1/"
   xmlns:cc="http://creativecommons.org/ns#"
   xmlns:rdf="http://www.w3.org/1999/02/22-rdf-syntax-ns#"
   xmlns:svg="http://www.w3.org/2000/svg"
   xmlns="http://www.w3.org/2000/svg"
   xmlns:sodipodi="http://sodipodi.sourceforge.net/DTD/sodipodi-0.dtd"
   xmlns:inkscape="http://www.inkscape.org/namespaces/inkscape"
   width="48"
   height="48"
   viewBox="0 0 45 45.000001"
   id="svg6795"
   version="1.1"
   inkscape:version="0.92.1 r"
   sodipodi:docname="Spectrum.svg">
  <defs
     id="defs6797">
    <clipPath
       clipPathUnits="userSpaceOnUse"
       id="clipPath6600">
      <path
         id="path6602"
         d="m 433.01297,-1698.4116 a 198.68104,198.68104 0 0 0 -198.68118,198.6813 198.68104,198.68104 0 0 0 198.68118,198.6812 198.68104,198.68104 0 0 0 198.68121,-198.6812 198.68104,198.68104 0 0 0 -198.68121,-198.6813 z m 0,111.9519 a 86.725851,86.725851 0 0 1 86.72946,86.7294 86.725851,86.725851 0 0 1 -86.72946,86.7293 86.725851,86.725851 0 0 1 -86.71838,-86.7293 86.725851,86.725851 0 0 1 86.71838,-86.7294 z"
         style="opacity:1;fill:#808000;fill-opacity:1;fill-rule:nonzero;stroke:none;stroke-width:5.69999981;stroke-linecap:round;stroke-linejoin:round;stroke-miterlimit:4;stroke-dasharray:45.59999847, 45.59999847;stroke-dashoffset:0;stroke-opacity:1"
         inkscape:connector-curvature="0" />
    </clipPath>
  </defs>
  <sodipodi:namedview
     id="base"
     pagecolor="#ffffff"
     bordercolor="#666666"
     borderopacity="1.0"
     inkscape:pageopacity="0.0"
     inkscape:pageshadow="2"
     inkscape:zoom="15.839192"
     inkscape:cx="10.092279"
     inkscape:cy="20.856676"
     inkscape:document-units="px"
     inkscape:current-layer="layer1"
     showgrid="false"
     units="px"
     inkscape:snap-page="true"
     inkscape:snap-bbox="true"
     inkscape:bbox-nodes="false"
     inkscape:window-width="2560"
     inkscape:window-height="1389"
     inkscape:window-x="0"
     inkscape:window-y="25"
     inkscape:window-maximized="1"
     inkscape:snap-bbox-midpoints="true" />
  <metadata
     id="metadata6800">
    <rdf:RDF>
      <cc:Work
         rdf:about="">
        <dc:format>image/svg+xml</dc:format>
        <dc:type
           rdf:resource="http://purl.org/dc/dcmitype/StillImage" />
        <dc:title />
      </cc:Work>
    </rdf:RDF>
  </metadata>
  <g
     inkscape:label="Livello 1"
     inkscape:groupmode="layer"
     id="layer1"
     transform="translate(0,-1007.3622)">
    <path
       inkscape:connector-curvature="0"
       id="path6413"
       d="m 22.5,1007.3622 a 22.499916,22.499916 0 0 0 -22.5,22.5 22.499916,22.499916 0 0 0 22.5,22.5 22.499916,22.499916 0 0 0 22.5,-22.5 22.499916,22.499916 0 0 0 -22.5,-22.5 z m 0,1.3289 A 21.170375,21.170375 0 0 1 43.67116,1029.8622 21.170375,21.170375 0 0 1 22.5,1051.0318 21.170375,21.170375 0 0 1 1.33042,1029.8622 21.170375,21.170375 0 0 1 22.5,1008.6911 Z"
       style="opacity:1;fill:#b7b7b7;fill-opacity:1;stroke:none;stroke-width:3;stroke-linecap:round;stroke-linejoin:round;stroke-miterlimit:4;stroke-dasharray:none;stroke-opacity:1" />
    <circle
       style="opacity:1;fill:none;fill-opacity:1;stroke:#b7b7b7;stroke-width:1.50000002;stroke-linecap:square;stroke-linejoin:miter;stroke-miterlimit:4;stroke-dasharray:none;stroke-opacity:1"
       id="circle4265"
       cx="22.500002"
       cy="1029.8622"
       r="16.567383" />
    <path
       style="color:#000000;font-style:normal;font-variant:normal;font-weight:normal;font-stretch:normal;font-size:medium;line-height:normal;font-family:sans-serif;font-variant-ligatures:normal;font-variant-position:normal;font-variant-caps:normal;font-variant-numeric:normal;font-variant-alternates:normal;font-feature-settings:normal;text-indent:0;text-align:start;text-decoration:none;text-decoration-line:none;text-decoration-style:solid;text-decoration-color:#000000;letter-spacing:normal;word-spacing:normal;text-transform:none;writing-mode:lr-tb;direction:ltr;text-orientation:mixed;dominant-baseline:auto;baseline-shift:baseline;text-anchor:start;white-space:normal;shape-padding:0;clip-rule:nonzero;display:inline;overflow:visible;visibility:visible;opacity:1;isolation:auto;mix-blend-mode:normal;color-interpolation:sRGB;color-interpolation-filters:linearRGB;solid-color:#000000;solid-opacity:1;vector-effect:none;fill:#b7b7b7;fill-opacity:1;fill-rule:nonzero;stroke:none;stroke-width:0.85299999;stroke-linecap:square;stroke-linejoin:miter;stroke-miterlimit:4;stroke-dasharray:none;stroke-dashoffset:0;stroke-opacity:1;color-rendering:auto;image-rendering:auto;shape-rendering:auto;text-rendering:auto;enable-background:accumulate"
       d="M 35.054688 10.232422 C 34.410771 13.544282 33.418738 16.731301 32.101562 19.746094 C 28.403351 18.797294 24.526757 18.292969 20.533203 18.292969 C 18.081604 18.292969 15.677156 18.487222 13.328125 18.853516 C 12.794284 16.196705 12.501959 13.454424 12.451172 10.652344 A 17.671875 17.671875 0 0 0 11.617188 11.398438 C 11.704834 13.991667 11.994742 16.532857 12.490234 19.001953 C 10.513376 19.347646 8.5815239 19.824897 6.6992188 20.412109 A 17.671875 17.671875 0 0 0 6.546875 21.363281 C 8.5347209 20.722741 10.574876 20.198673 12.671875 19.833984 C 13.987956 25.816811 16.454915 31.365215 19.833984 36.238281 C 18.459756 37.407196 17.011072 38.490317 15.503906 39.492188 A 17.671875 17.671875 0 0 0 16.382812 39.921875 C 17.749988 38.991737 19.070379 37.998241 20.328125 36.931641 C 21.529227 38.597874 22.84978 40.171394 24.255859 41.662109 A 17.671875 17.671875 0 0 0 25.382812 41.611328 C 23.789992 39.976052 22.305604 38.23389 20.970703 36.375 C 25.86017 32.073133 29.834003 26.761645 32.572266 20.763672 C 35.752757 21.632354 38.792149 22.842514 41.654297 24.341797 A 17.671875 17.671875 0 0 0 41.671875 24 A 17.671875 17.671875 0 0 0 41.650391 23.378906 C 38.891214 21.966784 35.972556 20.820484 32.927734 19.978516 C 34.184514 17.083739 35.152436 14.036797 35.802734 10.873047 A 17.671875 17.671875 0 0 0 35.054688 10.232422 z M 20.533203 19.144531 C 24.401088 19.144531 28.156319 19.630763 31.742188 20.537109 C 29.069236 26.348629 25.214575 31.499027 20.478516 35.681641 C 17.195359 30.925161 14.797793 25.51474 13.511719 19.683594 C 15.800874 19.329674 18.144739 19.144531 20.533203 19.144531 z "
       transform="matrix(0.93750001,0,0,0.93750001,0,1007.3622)"
       id="circle4263" />
  </g>
</svg>
