<?xml version="1.0" encoding="UTF-8" standalone="no"?>
<!-- Created with Inkscape (http://www.inkscape.org/) -->

<svg
   xmlns:dc="http://purl.org/dc/elements/1.1/"
   xmlns:cc="http://creativecommons.org/ns#"
   xmlns:rdf="http://www.w3.org/1999/02/22-rdf-syntax-ns#"
   xmlns:svg="http://www.w3.org/2000/svg"
   xmlns="http://www.w3.org/2000/svg"
   xmlns:sodipodi="http://sodipodi.sourceforge.net/DTD/sodipodi-0.dtd"
   xmlns:inkscape="http://www.inkscape.org/namespaces/inkscape"
   width="45"
   height="45"
   viewBox="0 0 45 45.000001"
   id="svg4424"
   version="1.1"
   inkscape:version="0.91 r13725"
   sodipodi:docname="None (copia).svg">
  <defs
     id="defs4426" />
  <sodipodi:namedview
     id="base"
     pagecolor="#ffffff"
     bordercolor="#666666"
     borderopacity="1.0"
     inkscape:pageopacity="0.0"
     inkscape:pageshadow="2"
     inkscape:zoom="7.919596"
     inkscape:cx="0.0021721873"
     inkscape:cy="6.8162385"
     inkscape:document-units="px"
     inkscape:current-layer="layer1"
     showgrid="false"
     units="px"
     inkscape:snap-page="true"
     inkscape:snap-bbox="true"
     inkscape:snap-bbox-midpoints="true"
     inkscape:bbox-nodes="true"
     inkscape:window-width="1920"
     inkscape:window-height="1052"
     inkscape:window-x="2560"
     inkscape:window-y="360"
     inkscape:window-maximized="1"
     inkscape:bbox-paths="true"
     inkscape:object-nodes="true" />
  <metadata
     id="metadata4429">
    <rdf:RDF>
      <cc:Work
         rdf:about="">
        <dc:format>image/svg+xml</dc:format>
        <dc:type
           rdf:resource="http://purl.org/dc/dcmitype/StillImage" />
        <dc:title />
      </cc:Work>
    </rdf:RDF>
  </metadata>
  <g
     inkscape:label="Livello 1"
     inkscape:groupmode="layer"
     id="layer1"
     transform="translate(0,-1007.3622)">
    <path
       style="opacity:1;fill:none;fill-opacity:1;stroke:#b7b7b7;stroke-width:1.5;stroke-linecap:round;stroke-linejoin:round;stroke-miterlimit:4;stroke-dasharray:none;stroke-opacity:1"
       d="M 24.484375 9.9902344 A 10.611456 10.611456 0 0 0 18.777344 11.384766 A 10.611456 10.611456 0 0 0 13.925781 23.675781 L 4.609375 34.765625 A 21.713575 21.713575 0 0 0 12.830078 41.912109 L 22.011719 30.982422 A 10.611456 10.611456 0 0 0 29.347656 29.787109 A 10.611456 10.611456 0 0 0 34.630859 21.511719 L 27.916016 25.367188 C 26.093522 26.413088 23.786878 25.79105 22.740234 23.96875 L 20.472656 20.025391 C 19.42592 18.203291 20.052884 15.894256 21.875 14.847656 L 28.578125 10.996094 A 10.611456 10.611456 0 0 0 24.484375 9.9902344 z "
       transform="translate(0,1007.3622)"
       id="rect4138" />
    <path
       style="opacity:1;fill:#b7b7b7;fill-opacity:1;stroke:none;stroke-width:3;stroke-linecap:round;stroke-linejoin:round;stroke-miterlimit:4;stroke-dasharray:none;stroke-opacity:1"
       d="m 22.5,1007.3622 a 22.499916,22.499916 0 0 0 -22.5,22.5 22.499916,22.499916 0 0 0 22.5,22.5 22.499916,22.499916 0 0 0 22.5,-22.5 22.499916,22.499916 0 0 0 -22.5,-22.5 z m 0,1.3289 A 21.170375,21.170375 0 0 1 43.67116,1029.8622 21.170375,21.170375 0 0 1 22.5,1051.0318 21.170375,21.170375 0 0 1 1.33042,1029.8622 21.170375,21.170375 0 0 1 22.5,1008.6911 Z"
       id="path4368"
       inkscape:connector-curvature="0" />
    <path
       inkscape:connector-curvature="0"
       id="path4370"
       d="m 22.5,1007.3622 a 22.499916,22.499916 0 0 0 -22.5,22.5 22.499916,22.499916 0 0 0 22.5,22.5 22.499916,22.499916 0 0 0 22.5,-22.5 22.499916,22.499916 0 0 0 -22.5,-22.5 z m 0,1.3289 A 21.170375,21.170375 0 0 1 43.67116,1029.8622 21.170375,21.170375 0 0 1 22.5,1051.0318 21.170375,21.170375 0 0 1 1.33042,1029.8622 21.170375,21.170375 0 0 1 22.5,1008.6911 Z"
       style="opacity:1;fill:#b7b7b7;fill-opacity:1;stroke:none;stroke-width:3;stroke-linecap:round;stroke-linejoin:round;stroke-miterlimit:4;stroke-dasharray:none;stroke-opacity:1" />
  </g>
</svg>
