<?xml version="1.0" encoding="UTF-8" standalone="no"?>
<!-- Created with Inkscape (http://www.inkscape.org/) -->

<svg
   xmlns:dc="http://purl.org/dc/elements/1.1/"
   xmlns:cc="http://creativecommons.org/ns#"
   xmlns:rdf="http://www.w3.org/1999/02/22-rdf-syntax-ns#"
   xmlns:svg="http://www.w3.org/2000/svg"
   xmlns="http://www.w3.org/2000/svg"
   xmlns:sodipodi="http://sodipodi.sourceforge.net/DTD/sodipodi-0.dtd"
   xmlns:inkscape="http://www.inkscape.org/namespaces/inkscape"
   width="45"
   height="45"
   viewBox="0 0 45 45"
   id="svg2"
   version="1.1"
   inkscape:version="0.91 r13725"
   sodipodi:docname="gameModeOn.svg">
  <defs
     id="defs4" />
  <sodipodi:namedview
     id="base"
     pagecolor="#ffffff"
     bordercolor="#666666"
     borderopacity="1.0"
     inkscape:pageopacity="0.0"
     inkscape:pageshadow="2"
     inkscape:zoom="2.8"
     inkscape:cx="-7.9476399"
     inkscape:cy="126.10524"
     inkscape:document-units="px"
     inkscape:current-layer="layer1"
     showgrid="false"
     units="px"
     inkscape:snap-bbox="true"
     inkscape:snap-bbox-midpoints="true"
     inkscape:snap-page="true"
     inkscape:bbox-nodes="true"
     inkscape:window-width="2560"
     inkscape:window-height="1385"
     inkscape:window-x="0"
     inkscape:window-y="27"
     inkscape:window-maximized="1" />
  <metadata
     id="metadata7">
    <rdf:RDF>
      <cc:Work
         rdf:about="">
        <dc:format>image/svg+xml</dc:format>
        <dc:type
           rdf:resource="http://purl.org/dc/dcmitype/StillImage" />
        <dc:title></dc:title>
      </cc:Work>
    </rdf:RDF>
  </metadata>
  <g
     inkscape:label="Livello 1"
     inkscape:groupmode="layer"
     id="layer1"
     transform="translate(0,-1007.3622)">
    <path
       style="opacity:1;fill:#87ea84;fill-opacity:1;stroke:none;stroke-width:3;stroke-linecap:round;stroke-linejoin:round;stroke-miterlimit:4;stroke-dasharray:none;stroke-opacity:1"
       d="m 19.728149,1007.3622 0,3.8856 a 18.843374,18.843374 0 0 0 -15.8496552,15.8425 l -3.87847501101,0 0,5.5441 3.88557101101,0 a 18.843374,18.843374 0 0 0 15.8425592,15.8493 l 0,3.8785 5.543719,0 0,-3.8852 a 18.843374,18.843374 0 0 0 15.849659,-15.8426 l 3.878473,0 0,-5.5441 -3.885248,0 A 18.843374,18.843374 0 0 0 25.271868,1011.241 l 0,-3.8788 -5.543719,0 z m 0,7.0338 0,1.8424 5.543719,0 0,-1.8333 a 15.717555,15.717555 0 0 1 12.694304,12.6852 l -1.842315,0 0,5.5441 1.833285,0 a 15.717555,15.717555 0 0 1 -12.685274,12.6943 l 0,-1.8426 -5.543719,0 0,1.8336 A 15.717555,15.717555 0 0 1 7.0335243,1032.6344 l 1.8426379,0 0,-5.5441 -1.8336082,0 a 15.717555,15.717555 0 0 1 12.685595,-12.6943 z m -6.517126,6.1772 0,18.578 18.577973,0 0,-11.1468 -11.146784,0 0,3.7156 7.43119,0 0,3.7156 -11.146785,0 0,-11.1468 14.862379,0 0,-3.7156 -18.577973,0 z"
       id="path4136"
       inkscape:connector-curvature="0" />
  </g>
</svg>
