<?xml version="1.0" encoding="UTF-8" standalone="no"?>
<!-- Created with Inkscape (http://www.inkscape.org/) -->

<svg
   xmlns:dc="http://purl.org/dc/elements/1.1/"
   xmlns:cc="http://creativecommons.org/ns#"
   xmlns:rdf="http://www.w3.org/1999/02/22-rdf-syntax-ns#"
   xmlns:svg="http://www.w3.org/2000/svg"
   xmlns="http://www.w3.org/2000/svg"
   xmlns:sodipodi="http://sodipodi.sourceforge.net/DTD/sodipodi-0.dtd"
   xmlns:inkscape="http://www.inkscape.org/namespaces/inkscape"
   width="45"
   height="45"
   viewBox="0 0 45 45.000001"
   id="svg4242"
   version="1.1"
   inkscape:version="0.91 r13725"
   sodipodi:docname="Ripple.svg">
  <defs
     id="defs4244" />
  <sodipodi:namedview
     id="base"
     pagecolor="#ffffff"
     bordercolor="#666666"
     borderopacity="1.0"
     inkscape:pageopacity="0.0"
     inkscape:pageshadow="2"
     inkscape:zoom="7.9195959"
     inkscape:cx="13.350793"
     inkscape:cy="22.257861"
     inkscape:document-units="px"
     inkscape:current-layer="layer1"
     showgrid="false"
     units="px"
     inkscape:snap-page="true"
     inkscape:snap-bbox="true"
     inkscape:bbox-nodes="true"
     inkscape:window-width="1366"
     inkscape:window-height="713"
     inkscape:window-x="0"
     inkscape:window-y="27"
     inkscape:window-maximized="1" />
  <metadata
     id="metadata4247">
    <rdf:RDF>
      <cc:Work
         rdf:about="">
        <dc:format>image/svg+xml</dc:format>
        <dc:type
           rdf:resource="http://purl.org/dc/dcmitype/StillImage" />
        <dc:title />
      </cc:Work>
    </rdf:RDF>
  </metadata>
  <g
     inkscape:label="Livello 1"
     inkscape:groupmode="layer"
     id="layer1"
     transform="translate(0,-1007.3622)">
    <path
       style="opacity:1;fill:#b7b7b7;fill-opacity:1;stroke:none;stroke-width:3;stroke-linecap:round;stroke-linejoin:round;stroke-miterlimit:4;stroke-dasharray:none;stroke-opacity:1"
       d="m 22.5,1007.3622 a 22.499916,22.499916 0 0 0 -22.5,22.5 22.499916,22.499916 0 0 0 22.5,22.5 22.499916,22.499916 0 0 0 22.5,-22.5 22.499916,22.499916 0 0 0 -22.5,-22.5 z m 0,1.3289 A 21.170375,21.170375 0 0 1 43.67116,1029.8622 21.170375,21.170375 0 0 1 22.5,1051.0318 21.170375,21.170375 0 0 1 1.33042,1029.8622 21.170375,21.170375 0 0 1 22.5,1008.6911 Z"
       id="path4174"
       inkscape:connector-curvature="0" />
    <circle
       r="5.9745193"
       cy="1025.1749"
       cx="33.759918"
       id="circle4178"
       style="opacity:1;fill:none;fill-opacity:1;stroke:#b7b7b7;stroke-width:1.5;stroke-linecap:square;stroke-linejoin:miter;stroke-miterlimit:4;stroke-dasharray:none;stroke-opacity:1" />
    <path
       inkscape:connector-curvature="0"
       style="opacity:1;fill:none;fill-opacity:1;stroke:#b7b7b7;stroke-width:0.80000001;stroke-linecap:square;stroke-linejoin:miter;stroke-miterlimit:4;stroke-dasharray:none;stroke-opacity:1"
       d="m 32.08159,1010.4506 a 14.838334,14.838334 0 0 0 -13.16016,14.7246 14.838334,14.838334 0 0 0 14.83789,14.8379 14.838334,14.838334 0 0 0 8.63477,-2.793 21.558371,21.607929 0 0 0 1.39453,-7.5722 21.558371,21.607929 0 0 0 -11.70703,-19.1973 z"
       id="circle4182" />
    <circle
       style="opacity:1;fill:none;fill-opacity:1;stroke:#b7b7b7;stroke-width:1.5;stroke-linecap:square;stroke-linejoin:miter;stroke-miterlimit:4;stroke-dasharray:none;stroke-opacity:1"
       id="circle4196"
       cx="13.652434"
       cy="1038.8561"
       r="5.9745193" />
    <path
       inkscape:connector-curvature="0"
       style="opacity:1;fill:none;fill-opacity:1;stroke:#b7b7b7;stroke-width:0.80000001;stroke-linecap:square;stroke-linejoin:miter;stroke-miterlimit:4;stroke-dasharray:none;stroke-opacity:1"
       d="m 13.6519,1027.1986 a 11.65644,11.65644 0 0 0 -11.54883,10.1758 21.558371,21.607929 0 0 0 13.75977,12.918 11.65644,11.65644 0 0 0 9.44531,-11.4356 11.65644,11.65644 0 0 0 -11.65625,-11.6582 z"
       id="circle4198" />
  </g>
</svg>
